name GIL01_free4.mot
datacolumns 153
datarows 4
range 0.14166667 0.16666666
endheader

                time	           pelvis_tx	           pelvis_ty	           pelvis_tz	         pelvis_tilt	         pelvis_list	     pelvis_rotation	       hip_flexion_r	     hip_adduction_r	      hip_rotation_r	        knee_angle_r	       ankle_angle_r	    subtalar_angle_r	         mtp_angle_r	       hip_flexion_l	     hip_adduction_l	      hip_rotation_l	        knee_angle_l	       ankle_angle_l	    subtalar_angle_l	         mtp_angle_l	    lumbar_extension	      lumbar_bending	     lumbar_rotation	     ground_force_vx	     ground_force_vy	     ground_force_vz	     ground_force_px	     ground_force_py	     ground_force_pz	     ground_force_vx	     ground_force_vy	     ground_force_vz	     ground_force_px	     ground_force_py	     ground_force_pz	     ground_torque_x	     ground_torque_y	     ground_torque_z	     ground_torque_x	     ground_torque_y	     ground_torque_z	    ground_marker_px	    ground_marker_py	    ground_marker_pz	    ground_marker_px	    ground_marker_py	    ground_marker_pz	    ground_marker_px	    ground_marker_py	    ground_marker_pz	    ground_marker_px	    ground_marker_py	    ground_marker_pz	    ground_marker_px	    ground_marker_py	    ground_marker_pz	    ground_marker_px	    ground_marker_py	    ground_marker_pz	    ground_marker_px	    ground_marker_py	    ground_marker_pz	    ground_marker_px	    ground_marker_py	    ground_marker_pz	    ground_marker_px	    ground_marker_py	    ground_marker_pz	    ground_marker_px	    ground_marker_py	    ground_marker_pz	    ground_marker_px	    ground_marker_py	    ground_marker_pz	    ground_marker_px	    ground_marker_py	    ground_marker_pz	    ground_marker_px	    ground_marker_py	    ground_marker_pz	    ground_marker_px	    ground_marker_py	    ground_marker_pz	    ground_marker_px	    ground_marker_py	    ground_marker_pz	    ground_marker_px	    ground_marker_py	    ground_marker_pz	    ground_marker_px	    ground_marker_py	    ground_marker_pz	    ground_marker_px	    ground_marker_py	    ground_marker_pz	    ground_marker_px	    ground_marker_py	    ground_marker_pz	    ground_marker_px	    ground_marker_py	    ground_marker_pz	    ground_marker_px	    ground_marker_py	    ground_marker_pz	    ground_marker_px	    ground_marker_py	    ground_marker_pz	    ground_marker_px	    ground_marker_py	    ground_marker_pz	    ground_marker_px	    ground_marker_py	    ground_marker_pz	    ground_marker_px	    ground_marker_py	    ground_marker_pz	    ground_marker_px	    ground_marker_py	    ground_marker_pz	    ground_marker_px	    ground_marker_py	    ground_marker_pz	    ground_marker_px	    ground_marker_py	    ground_marker_pz	    ground_marker_px	    ground_marker_py	    ground_marker_pz	    ground_marker_px	    ground_marker_py	    ground_marker_pz	    ground_marker_px	    ground_marker_py	    ground_marker_pz	    ground_marker_px	    ground_marker_py	    ground_marker_pz	    ground_marker_px	    ground_marker_py	    ground_marker_pz	    ground_marker_px	    ground_marker_py	    ground_marker_pz	    ground_marker_px	    ground_marker_py	    ground_marker_pz	    ground_marker_px	    ground_marker_py	    ground_marker_pz	    ground_marker_px	    ground_marker_py	    ground_marker_pz	
          0.14166667	          0.01712436	          0.79408598	         -0.28681123	         -1.85946560	          5.37614584	         -4.68931770	         -9.04942131	         -6.03212833	         -3.28521633	        -31.29620361	        -18.38306999	          0.00000000	          0.00000000	         22.12147522	          4.38804150	         -2.84266806	        -14.17454529	         -5.52772141	          0.00000000	          0.00000000	        141.72532654	        -68.20417786	        139.96168518	          0.00000000	          0.00000000	          0.00000000	          0.49803729	          0.00000000	         -0.23053412	        -62.44381233	        405.43868261	         23.99725555	          0.08846335	          0.00000000	         -0.35649326	          0.00000000	          0.00000000	          0.00000000	          0.00000000	          0.13396753	          0.00000000	         -0.03791016	          0.73211622	         -0.29445592	         -0.05936423	          0.72113937	         -0.23421377	         -0.04610581	          0.73040193	         -0.36352172	         -0.12589806	          0.39198533	         -0.22904551	          0.06289962	          0.42470577	         -0.34919327	         -0.36203584	          0.14004090	         -0.21741830	          0.09757091	          0.06971029	         -0.34762031	          0.01712436	          0.79408598	         -0.28681123	          0.00682706	          0.78689206	         -0.18638286	          0.02742165	          0.80127984	         -0.38723963	         -0.14415120	          0.83421725	         -0.26642054	         -0.14233740	          0.83443266	         -0.32107106	         -0.13344496	          0.39436543	         -0.17461777	          0.06733288	          0.42374095	         -0.40350410	         -0.10741115	          0.38293904	         -0.27333382	          0.06296670	          0.39312229	         -0.31381261	         -0.37172842	          0.15072291	         -0.18280330	          0.09673419	          0.06946467	         -0.38461003	         -0.35613161	          0.14120436	         -0.24123527	          0.10092546	          0.06742535	         -0.31812188	         -0.12080324	          1.20211458	         -0.29528880	         -0.01309488	          1.14424086	         -0.25526845	          0.00000000	          0.00000000	          0.00000000	          0.00000000	          0.00000000	          0.00000000	          0.00000000	          0.00000000	          0.00000000	         -0.01519526	          0.49466518	         -0.10789078	          0.16234373	          0.58400756	         -0.35068974	         -0.07613583	          0.55913913	         -0.15246539	          0.08281094	          0.61631072	         -0.39521176	         -0.08669829	          0.47243229	         -0.16558902	          0.10043861	          0.53102058	         -0.39156446	         -0.31266031	          0.25486955	         -0.11187535	          0.11367420	          0.19286430	         -0.45726094	         -0.32581231	          0.21695761	         -0.18525137	          0.09164864	          0.15137531	         -0.38649318	         -0.33955148	          0.04496192	         -0.20220155	          0.20129645	          0.03864795	         -0.36165488	
          0.14999999	          0.02511633	          0.79544371	         -0.28785062	         -1.78149700	          5.47262812	         -4.84114742	         -7.65333939	         -6.31334019	         -3.37928796	        -33.67911911	        -21.49150848	          0.00000000	          0.00000000	         21.37418365	          4.68140173	         -3.47842455	        -14.02388382	         -5.07018185	          0.00000000	          0.00000000	        141.69232178	        -68.14347076	        140.37680054	          0.00000000	          0.00000000	          0.00000000	          0.49924390	          0.00000000	         -0.23038658	        -59.27740502	        412.79321337	         23.12666475	          0.08858897	          0.00000000	         -0.35637573	          0.00000000	          0.00000000	          0.00000000	          0.00000000	          0.20198950	          0.00000000	         -0.02974311	          0.73349929	         -0.29635033	         -0.05144664	          0.72235936	         -0.23555335	         -0.03781539	          0.73176688	         -0.36481208	         -0.10980745	          0.39167982	         -0.22853942	          0.06719982	          0.42512590	         -0.34935483	         -0.34929770	          0.14446610	         -0.21831924	          0.09833313	          0.06978847	         -0.34734949	          0.02511633	          0.79544371	         -0.28785062	          0.01453830	          0.78814340	         -0.18754415	          0.03569435	          0.80274403	         -0.38815707	         -0.13628884	          0.83517665	         -0.26789588	         -0.13423879	          0.83584708	         -0.32260460	         -0.11771055	          0.39422780	         -0.17416988	          0.07125247	          0.42377499	         -0.40368718	         -0.08971864	          0.38129267	         -0.27266634	          0.07318532	          0.39318162	         -0.31258547	         -0.35932374	          0.15560009	         -0.18394245	          0.09706081	          0.06946831	         -0.38432622	         -0.34327784	          0.14504555	         -0.24207424	          0.10107100	          0.06731085	         -0.31783345	         -0.11218560	          1.20368505	         -0.29696551	         -0.00469313	          1.14536643	         -0.25645968	          0.00000000	          0.00000000	          0.00000000	          0.00000000	          0.00000000	          0.00000000	          0.00000000	          0.00000000	          0.00000000	         -0.00218270	          0.49662688	         -0.10690615	          0.16884883	          0.58255225	         -0.35246703	         -0.06425688	          0.55913109	         -0.15263155	          0.08954863	          0.61588115	         -0.39659420	         -0.07250387	          0.47185194	         -0.16532233	          0.10854176	          0.53051984	         -0.39196479	         -0.29961705	          0.25940785	         -0.11305679	          0.11435606	          0.19243146	         -0.45731527	         -0.31229201	          0.22071920	         -0.18609349	          0.09253030	          0.15138024	         -0.38615403	         -0.33359402	          0.04765997	         -0.20242468	          0.20139502	          0.03865533	         -0.36115649	
          0.15833333	          0.03287328	          0.79674870	         -0.28877038	         -1.71572781	          5.53488588	         -4.98458385	         -6.17526770	         -6.52151537	         -3.54391789	        -36.11819839	        -23.81864929	          0.00000000	          0.00000000	         20.62419891	          4.91938019	         -3.87643218	        -13.86833191	         -4.54631853	          0.00000000	          0.00000000	         -7.65988827	         -1.72512639	          0.64230907	          0.00000000	          0.00000000	          0.00000000	          0.50069073	          0.00000000	         -0.23023007	        -55.43159832	        418.32570141	         21.63034200	          0.08869336	          0.00000000	         -0.35623889	          0.00000000	          0.00000000	          0.00000000	          0.00000000	          0.33418677	          0.00000000	         -0.02206282	          0.73455364	         -0.29807985	         -0.04376307	          0.72357070	         -0.23671217	         -0.02979420	          0.73305053	         -0.36592957	         -0.09348508	          0.39154798	         -0.22797826	          0.07117663	          0.42553383	         -0.34954721	         -0.33612028	          0.14906517	         -0.21948878	          0.09876769	          0.06983218	         -0.34717008	          0.03287328	          0.79674870	         -0.28877038	          0.02204076	          0.78939730	         -0.18856542	          0.04370581	          0.80410010	         -0.38897532	         -0.12864849	          0.83611846	         -0.26933497	         -0.12629946	          0.83723414	         -0.32409644	         -0.10182667	          0.39422548	         -0.17368048	          0.07501908	          0.42390063	         -0.40388706	         -0.06864400	          0.38002300	         -0.27178296	          0.06887744	          0.39442036	         -0.31345025	         -0.34631279	          0.16046290	         -0.18524766	          0.09728508	          0.06947012	         -0.38413858	         -0.33008671	          0.14911942	         -0.24321184	          0.10110336	          0.06725388	         -0.31764254	         -0.10360189	          1.20524180	         -0.29861578	          0.00366593	          1.14659154	         -0.25745735	          0.01066227	          1.15002811	         -0.33355790	         -0.00733963	          1.14698482	         -0.29830316	          0.02168757	          1.06504226	         -0.29691726	          0.01063335	          0.49875882	         -0.10582123	          0.17488211	          0.58117270	         -0.35366642	         -0.05252481	          0.55930299	         -0.15275364	          0.09582568	          0.61571252	         -0.39758006	         -0.05705313	          0.47225612	         -0.16481991	          0.11030464	          0.53013688	         -0.39323312	         -0.28568891	          0.26343930	         -0.11418395	          0.11538292	          0.19209160	         -0.45731720	         -0.29798123	          0.22431013	         -0.18696383	          0.09338530	          0.15148118	         -0.38596216	         -0.32614824	          0.05100930	         -0.20247319	          0.20142251	          0.03870429	         -0.36069378	
          0.16666666	          0.04041096	          0.79802400	         -0.28959003	         -1.67242336	          5.55402136	         -5.11385107	         -4.61283350	         -6.64624453	         -3.75280070	        -38.60572433	        -25.20716095	          0.00000000	          0.00000000	         19.88326454	          5.08943796	         -4.02786541	        -13.72548962	         -3.95602655	          0.00000000	          0.00000000	         -8.03729248	         -2.16537380	          1.78419936	          0.00000000	          0.00000000	          0.00000000	          0.50239575	          0.00000000	         -0.23008253	        -51.24294171	        420.65918127	         20.02110673	          0.08875383	          0.00000000	         -0.35612695	          0.00000000	          0.00000000	          0.00000000	          0.00000000	          0.49606226	          0.00000000	         -0.01457544	          0.73537087	         -0.30013713	         -0.03630355	          0.72481549	         -0.23769003	         -0.02204766	          0.73427624	         -0.36687747	         -0.07695242	          0.39168525	         -0.22737178	          0.07486580	          0.42591512	         -0.34980020	         -0.32255712	          0.15384355	         -0.22094727	          0.09883668	          0.06983941	         -0.34708196	          0.04041096	          0.79802400	         -0.28959003	          0.02936018	          0.79069030	         -0.18944740	          0.05146173	          0.80535769	         -0.38973266	         -0.12088692	          0.83703387	         -0.27069873	         -0.11843783	          0.83859807	         -0.32550693	         -0.08577928	          0.39444157	         -0.17315473	          0.07867137	          0.42410195	         -0.40413693	         -0.04035083	          0.37907180	         -0.26986864	          0.06811839	          0.39584652	         -0.31273869	         -0.33277255	          0.16531646	         -0.18673810	          0.09740723	          0.06946095	         -0.38405240	         -0.31635988	          0.15333824	         -0.24457711	          0.10107918	          0.06723264	         -0.31754005	         -0.09501188	          1.20683885	         -0.30020133	          0.01208359	          1.14790332	         -0.25835678	          0.01762273	          1.15100396	         -0.33433953	          0.00029184	          1.14819539	         -0.29886088	          0.02890894	          1.06610513	         -0.29771113	          0.02330245	          0.50108665	         -0.10471912	          0.18053189	          0.57994056	         -0.35430980	         -0.04087634	          0.55965668	         -0.15294614	          0.10191336	          0.61561322	         -0.39820567	         -0.03895297	          0.47384074	         -0.16376813	          0.11353233	          0.52976131	         -0.39350396	         -0.27100801	          0.26700062	         -0.11524627	          0.11685498	          0.19182637	         -0.45726153	         -0.28316316	          0.22787732	         -0.18800773	          0.09430157	          0.15157463	         -0.38593847	         -0.31695971	          0.05489821	         -0.20233494	          0.20139925	          0.03874508	         -0.36034209	
